<svg width="29" height="29" viewBox="0 0 29 29" fill="none" xmlns="http://www.w3.org/2000/svg">
<path d="M28.0625 14.5C28.0625 7.0625 21.9375 0.9375 14.5 0.9375C7.00781 0.9375 0.9375 7.0625 0.9375 14.5C0.9375 21.9922 7.00781 28.0625 14.5 28.0625C21.9375 28.0625 28.0625 21.9922 28.0625 14.5ZM12.9141 21.7188C12.5859 22.0469 11.9844 22.0469 11.6562 21.7188L5.96875 16.0312C5.64062 15.7031 5.64062 15.1016 5.96875 14.7734L7.22656 13.5703C7.55469 13.1875 8.10156 13.1875 8.42969 13.5703L12.3125 17.3984L20.5156 9.19531C20.8438 8.8125 21.3906 8.8125 21.7188 9.19531L22.9766 10.3984C23.3047 10.7266 23.3047 11.3281 22.9766 11.6562L12.9141 21.7188Z" fill="#14F299"/>
</svg>
