<svg width="32" height="32" viewBox="0 0 32 32" fill="none" xmlns="http://www.w3.org/2000/svg">
<path d="M13.3334 24C15.7947 24 18.0574 23.1533 19.8627 21.7493L25.7241 27.6106L27.6094 25.7253L21.7481 19.864C23.1534 18.0573 24.0001 15.7946 24.0001 13.3333C24.0001 7.45196 19.2147 2.66663 13.3334 2.66663C7.45208 2.66663 2.66675 7.45196 2.66675 13.3333C2.66675 19.2146 7.45208 24 13.3334 24ZM13.3334 5.33329C17.7454 5.33329 21.3334 8.92129 21.3334 13.3333C21.3334 17.7453 17.7454 21.3333 13.3334 21.3333C8.92141 21.3333 5.33341 17.7453 5.33341 13.3333C5.33341 8.92129 8.92141 5.33329 13.3334 5.33329Z" fill="#14F299"/>
<path d="M15.2161 11.448C15.7214 11.9547 16.0001 12.624 16.0001 13.3333H18.6668C18.6668 11.9133 18.1121 10.5747 17.1014 9.56266C15.0828 7.54666 11.5828 7.54666 9.56543 9.56266L11.4481 11.4507C12.4614 10.44 14.2081 10.4427 15.2161 11.448Z" fill="#14F299"/>
</svg>
