<svg width="21" height="21" viewBox="0 0 21 21" fill="none" xmlns="http://www.w3.org/2000/svg">
<path d="M14.7383 10.125L20.4023 4.46094C21.1387 3.78125 21.1387 2.64844 20.4023 1.96875L19.1562 0.722656C18.4766 -0.0136719 17.3438 -0.0136719 16.6641 0.722656L11 6.38672L5.2793 0.722656C4.59961 -0.0136719 3.4668 -0.0136719 2.78711 0.722656L1.54102 1.96875C0.804688 2.64844 0.804688 3.78125 1.54102 4.46094L7.20508 10.125L1.54102 15.8457C0.804688 16.5254 0.804688 17.6582 1.54102 18.3379L2.78711 19.584C3.4668 20.3203 4.59961 20.3203 5.2793 19.584L11 13.9199L16.6641 19.584C17.3438 20.3203 18.4766 20.3203 19.1562 19.584L20.4023 18.3379C21.1387 17.6582 21.1387 16.5254 20.4023 15.8457L14.7383 10.125Z" fill="#14F299"/>
</svg>
