<svg width="32" height="32" viewBox="0 0 32 32" fill="none" xmlns="http://www.w3.org/2000/svg">
<path d="M15.9999 29.3333C17.4727 29.3333 18.6666 28.1394 18.6666 26.6667C18.6666 25.1939 17.4727 24 15.9999 24C14.5272 24 13.3333 25.1939 13.3333 26.6667C13.3333 28.1394 14.5272 29.3333 15.9999 29.3333Z" fill="#14F299"/>
<path d="M15.9999 7.99996C17.4727 7.99996 18.6666 6.80605 18.6666 5.33329C18.6666 3.86053 17.4727 2.66663 15.9999 2.66663C14.5272 2.66663 13.3333 3.86053 13.3333 5.33329C13.3333 6.80605 14.5272 7.99996 15.9999 7.99996Z" fill="#14F299"/>
<path d="M8.45744 26.2093C9.9302 26.2093 11.1241 25.0154 11.1241 23.5426C11.1241 22.0699 9.9302 20.876 8.45744 20.876C6.98468 20.876 5.79077 22.0699 5.79077 23.5426C5.79077 25.0154 6.98468 26.2093 8.45744 26.2093Z" fill="#14F299"/>
<path d="M23.5426 11.124C25.0154 11.124 26.2093 9.93008 26.2093 8.45732C26.2093 6.98456 25.0154 5.79065 23.5426 5.79065C22.0699 5.79065 20.876 6.98456 20.876 8.45732C20.876 9.93008 22.0699 11.124 23.5426 11.124Z" fill="#14F299"/>
<path d="M5.33328 18.668C6.80678 18.668 8.00128 17.4735 8.00128 16C8.00128 14.5265 6.80678 13.332 5.33328 13.332C3.85979 13.332 2.66528 14.5265 2.66528 16C2.66528 17.4735 3.85979 18.668 5.33328 18.668Z" fill="#14F299"/>
<path d="M26.6667 18.6667C28.1394 18.6667 29.3333 17.4728 29.3333 16C29.3333 14.5273 28.1394 13.3334 26.6667 13.3334C25.1939 13.3334 24 14.5273 24 16C24 17.4728 25.1939 18.6667 26.6667 18.6667Z" fill="#14F299"/>
<path d="M8.45744 11.1253C9.9302 11.1253 11.1241 9.93142 11.1241 8.45866C11.1241 6.9859 9.9302 5.79199 8.45744 5.79199C6.98468 5.79199 5.79077 6.9859 5.79077 8.45866C5.79077 9.93142 6.98468 11.1253 8.45744 11.1253Z" fill="#14F299"/>
<path d="M23.5426 26.2107C25.0154 26.2107 26.2093 25.0167 26.2093 23.544C26.2093 22.0712 25.0154 20.8773 23.5426 20.8773C22.0699 20.8773 20.876 22.0712 20.876 23.544C20.876 25.0167 22.0699 26.2107 23.5426 26.2107Z" fill="#14F299"/>
</svg>
